<?xml version="1.0" encoding="UTF-8" standalone="no"?>
<!-- Created with Inkscape (http://www.inkscape.org/) -->

<svg
   xmlns:dc="http://purl.org/dc/elements/1.1/"
   xmlns:cc="http://creativecommons.org/ns#"
   xmlns:rdf="http://www.w3.org/1999/02/22-rdf-syntax-ns#"
   xmlns:svg="http://www.w3.org/2000/svg"
   xmlns="http://www.w3.org/2000/svg"
   xmlns:sodipodi="http://sodipodi.sourceforge.net/DTD/sodipodi-0.dtd"
   xmlns:inkscape="http://www.inkscape.org/namespaces/inkscape"
   width="210mm"
   height="297mm"
   viewBox="0 0 210 297"
   version="1.1"
   id="svg8"
   inkscape:version="0.92.3 (2405546, 2018-03-11)"
   sodipodi:docname="logoMaxi.svg"
   inkscape:export-filename="D:\Maxi\Trabajos\UTN\Maxi\Programacion\Next U\Videos\Fundamentos de HTML\Evaluacion Final\Maxi\imagenes\logoMaxi.png"
   inkscape:export-xdpi="96"
   inkscape:export-ydpi="96">
  <defs
     id="defs2">
    <inkscape:perspective
       sodipodi:type="inkscape:persp3d"
       inkscape:vp_x="22.18337 : 479.64695 : 1"
       inkscape:vp_y="0 : 1000 : 0"
       inkscape:vp_z="115.11932 : 201.1521 : 1"
       inkscape:persp3d-origin="105 : 99 : 1"
       id="perspective299" />
    <filter
       inkscape:menu-tooltip="Sharpen edges and boundaries within the object, force=0.3"
       inkscape:menu="Image Effects"
       inkscape:label="Sharpen More"
       style="color-interpolation-filters:sRGB;"
       id="filter475"
       height="1.5"
       width="1.5"
       y="-0.25"
       x="-0.25">
      <feGaussianBlur
         result="result1"
         stdDeviation="3"
         id="feGaussianBlur453" />
      <feBlend
         in2="result1"
         result="result5"
         mode="multiply"
         in="result1"
         id="feBlend455" />
      <feGaussianBlur
         in="result5"
         result="result6"
         stdDeviation="1"
         id="feGaussianBlur457" />
      <feComposite
         result="result8"
         in2="result5"
         in="result6"
         operator="xor"
         id="feComposite459" />
      <feComposite
         in="result6"
         result="fbSourceGraphic"
         operator="xor"
         in2="result8"
         id="feComposite461" />
      <feSpecularLighting
         in="fbSourceGraphic"
         result="result1"
         lighting-color="rgb(255,255,255)"
         surfaceScale="2"
         specularConstant="2.2"
         specularExponent="55"
         id="feSpecularLighting465">
        <fePointLight
           x="-5000"
           y="-10000"
           z="20000"
           id="fePointLight463" />
      </feSpecularLighting>
      <feComposite
         in2="fbSourceGraphic"
         in="result1"
         result="result2"
         operator="in"
         id="feComposite467" />
      <feComposite
         in="fbSourceGraphic"
         result="result4"
         operator="arithmetic"
         k2="2"
         k3="1"
         in2="result2"
         id="feComposite469" />
      <feComposite
         in2="result4"
         in="result4"
         operator="in"
         result="result91"
         id="feComposite471" />
      <feBlend
         mode="darken"
         in2="result91"
         id="feBlend473"
         result="fbSourceGraphic" />
      <feColorMatrix
         result="fbSourceGraphicAlpha"
         in="fbSourceGraphic"
         values="0 0 0 -1 0 0 0 0 -1 0 0 0 0 -1 0 0 0 0 1 0"
         id="feColorMatrix477" />
      <feGaussianBlur
         id="feGaussianBlur479"
         stdDeviation="4"
         result="result1"
         in="fbSourceGraphic" />
      <feComposite
         in2="result1"
         id="feComposite481"
         in="result1"
         result="result4"
         operator="in" />
      <feGaussianBlur
         id="feGaussianBlur483"
         stdDeviation="2"
         result="result6"
         in="result4" />
      <feComposite
         in2="result4"
         id="feComposite485"
         operator="xor"
         in="result6"
         result="result8" />
      <feComposite
         in2="result8"
         id="feComposite487"
         operator="atop"
         result="fbSourceGraphic"
         in="result4" />
      <feSpecularLighting
         id="feSpecularLighting489"
         specularExponent="10"
         specularConstant="1.3"
         surfaceScale="3"
         lighting-color="rgb(255,255,255)"
         result="result1"
         in="fbSourceGraphic">
        <feDistantLight
           id="feDistantLight491"
           azimuth="235"
           elevation="55" />
      </feSpecularLighting>
      <feComposite
         in2="fbSourceGraphic"
         id="feComposite493"
         operator="atop"
         result="result2"
         in="result1" />
      <feComposite
         in2="result2"
         id="feComposite495"
         k3="1"
         k2="1"
         operator="arithmetic"
         result="result4"
         in="fbSourceGraphic" />
      <feComposite
         in2="fbSourceGraphic"
         id="feComposite497"
         operator="over"
         in="result4"
         result="result92" />
      <feBlend
         in2="result2"
         id="feBlend499"
         mode="multiply"
         result="fbSourceGraphic" />
      <feColorMatrix
         result="fbSourceGraphicAlpha"
         in="fbSourceGraphic"
         values="0 0 0 -1 0 0 0 0 -1 0 0 0 0 -1 0 0 0 0 1 0"
         id="feColorMatrix529" />
      <feMorphology
         id="feMorphology531"
         radius="4.3"
         in="fbSourceGraphicAlpha"
         result="result91" />
      <feComposite
         in2="result91"
         id="feComposite533"
         operator="out"
         in="fbSourceGraphic" />
      <feGaussianBlur
         id="feGaussianBlur535"
         result="result0"
         stdDeviation="1.2" />
      <feDiffuseLighting
         id="feDiffuseLighting537"
         diffuseConstant="1"
         result="result93">
        <feDistantLight
           id="feDistantLight539"
           elevation="66"
           azimuth="225" />
      </feDiffuseLighting>
      <feBlend
         in2="fbSourceGraphic"
         id="feBlend541"
         mode="multiply"
         result="result94" />
      <feComposite
         in2="fbSourceGraphicAlpha"
         id="feComposite543"
         operator="in"
         result="fbSourceGraphic" />
      <feColorMatrix
         result="fbSourceGraphicAlpha"
         in="fbSourceGraphic"
         values="0 0 0 -1 0 0 0 0 -1 0 0 0 0 -1 0 0 0 0 1 0"
         id="feColorMatrix545" />
      <feColorMatrix
         id="feColorMatrix547"
         values="1"
         type="saturate"
         result="colormatrix1"
         in="fbSourceGraphic" />
      <feColorMatrix
         id="feColorMatrix549"
         values="1 0 0 0 0 0 1 0 0 0 0 0 1 0 0 3.39 0.5 0.5 1 0 "
         in="fbSourceGraphic"
         result="colormatrix2" />
      <feFlood
         id="feFlood551"
         flood-color="rgb(0,255,255)"
         flood-opacity="1"
         result="flood" />
      <feComposite
         in2="colormatrix2"
         id="feComposite553"
         operator="out"
         result="composite1" />
      <feMerge
         id="feMerge555"
         result="merge">
        <feMergeNode
           id="feMergeNode557"
           in="colormatrix1" />
        <feMergeNode
           id="feMergeNode559"
           in="composite1" />
      </feMerge>
      <feComposite
         in2="fbSourceGraphic"
         id="feComposite561"
         in="merge"
         operator="in"
         result="fbSourceGraphic" />
      <feColorMatrix
         result="fbSourceGraphicAlpha"
         in="fbSourceGraphic"
         values="0 0 0 -1 0 0 0 0 -1 0 0 0 0 -1 0 0 0 0 1 0"
         id="feColorMatrix563" />
      <feColorMatrix
         id="feColorMatrix565"
         values="1"
         type="saturate"
         result="colormatrix1"
         in="fbSourceGraphic" />
      <feColorMatrix
         id="feColorMatrix567"
         values="1 0 0 0 0 0 1 0 0 0 0 0 1 0 0 0.25 0.5 0.5 1 0 "
         in="fbSourceGraphic"
         result="colormatrix2" />
      <feFlood
         id="feFlood569"
         flood-color="rgb(0,255,255)"
         flood-opacity="1"
         result="flood" />
      <feComposite
         in2="colormatrix2"
         id="feComposite571"
         operator="out"
         result="composite1" />
      <feMerge
         id="feMerge573"
         result="merge">
        <feMergeNode
           id="feMergeNode575"
           in="colormatrix1" />
        <feMergeNode
           id="feMergeNode577"
           in="composite1" />
      </feMerge>
      <feComposite
         in2="fbSourceGraphic"
         id="feComposite579"
         in="merge"
         operator="in"
         result="fbSourceGraphic" />
      <feColorMatrix
         result="fbSourceGraphicAlpha"
         in="fbSourceGraphic"
         values="0 0 0 -1 0 0 0 0 -1 0 0 0 0 -1 0 0 0 0 1 0"
         id="feColorMatrix769" />
      <feGaussianBlur
         id="feGaussianBlur771"
         stdDeviation="0.5"
         in="fbSourceGraphic"
         result="result0" />
      <feTurbulence
         id="feTurbulence773"
         result="result1"
         numOctaves="1"
         seed="488"
         baseFrequency="0.095"
         type="turbulence" />
      <feComposite
         in2="result1"
         id="feComposite775"
         in="result0"
         operator="in"
         result="result2" />
      <feComposite
         in2="result2"
         id="feComposite777"
         operator="arithmetic"
         in="result4"
         k3="1"
         k1="3"
         result="result91" />
      <feBlend
         in2="result91"
         id="feBlend779"
         mode="multiply"
         result="fbSourceGraphic" />
      <feColorMatrix
         id="feColorMatrix781"
         result="fbSourceGraphicAlpha"
         in="fbSourceGraphic"
         values="0 0 0 0 0 0 0 1 0 0 0 0 1 0 0 0 0 0 5 0" />
      <feGaussianBlur
         id="feGaussianBlur783"
         result="result0"
         in="fbSourceGraphicAlpha"
         stdDeviation="3" />
      <feOffset
         id="feOffset785"
         result="result3"
         in="result0"
         dy="2"
         dx="2" />
      <feSpecularLighting
         id="feSpecularLighting787"
         specularExponent="30"
         specularConstant="1.1"
         surfaceScale="2"
         lighting-color="rgb(111,236,253)"
         result="result1"
         in="result0">
        <fePointLight
           id="fePointLight789"
           z="20000"
           y="-10000"
           x="-5000" />
      </feSpecularLighting>
      <feComposite
         in2="fbSourceGraphicAlpha"
         id="feComposite791"
         k2="-1"
         operator="in"
         result="result2"
         in="result1" />
      <feComposite
         in2="result2"
         id="feComposite793"
         k3="1"
         k2="3"
         operator="arithmetic"
         result="result4"
         in="fbSourceGraphic" />
      <feBlend
         in2="result4"
         id="feBlend795"
         mode="multiply"
         result="fbSourceGraphic" />
      <feColorMatrix
         result="fbSourceGraphicAlpha"
         in="fbSourceGraphic"
         values="0 0 0 -1 0 0 0 0 -1 0 0 0 0 -1 0 0 0 0 1 0"
         id="feColorMatrix811" />
      <feComposite
         in2="fbSourceGraphic"
         id="feComposite813"
         operator="arithmetic"
         k4="1"
         result="result1"
         in="fbSourceGraphic" />
      <feMerge
         id="feMerge815"
         result="fbSourceGraphic">
        <feMergeNode
           id="feMergeNode817"
           in="result1" />
        <feMergeNode
           id="feMergeNode819"
           in="fbSourceGraphic" />
      </feMerge>
      <feColorMatrix
         result="fbSourceGraphicAlpha"
         in="fbSourceGraphic"
         values="0 0 0 -1 0 0 0 0 -1 0 0 0 0 -1 0 0 0 0 1 0"
         id="feColorMatrix847" />
      <feGaussianBlur
         id="feGaussianBlur849"
         stdDeviation="5"
         result="result6"
         in="fbSourceGraphic" />
      <feComposite
         in2="result6"
         id="feComposite851"
         result="result8"
         in="fbSourceGraphic"
         operator="atop" />
      <feComposite
         in2="fbSourceGraphicAlpha"
         id="feComposite853"
         result="result9"
         operator="over"
         in="result8" />
      <feColorMatrix
         id="feColorMatrix855"
         values="1 0 0 0 0 0 1 0 0 0 0 0 1 0 0 0 0 0 1 0 "
         result="result10" />
      <feBlend
         in2="result6"
         id="feBlend857"
         in="result10"
         mode="normal"
         result="fbSourceGraphic" />
      <feColorMatrix
         result="fbSourceGraphicAlpha"
         in="fbSourceGraphic"
         values="0 0 0 -1 0 0 0 0 -1 0 0 0 0 -1 0 0 0 0 1 0"
         id="feColorMatrix859" />
      <feConvolveMatrix
         id="feConvolveMatrix861"
         targetY="1"
         targetX="1"
         in="fbSourceGraphic"
         divisor="1"
         kernelMatrix="0 -0.3 0 -0.3 2.2 -0.3 0 -0.3 0"
         order="3 3"
         result="result1" />
      <feBlend
         in2="fbSourceGraphic"
         id="feBlend863"
         mode="normal"
         result="result2" />
    </filter>
    <filter
       style="color-interpolation-filters:sRGB"
       x="-0.25"
       width="1.5"
       y="-0.25"
       height="1.5"
       inkscape:menu="Non-realistic 3D Shaders"
       inkscape:menu-tooltip="Chrome effect with darkened edges"
       inkscape:label="Sharp Metal"
       id="filter1005">
      <feGaussianBlur
         result="result8"
         stdDeviation="5"
         in="SourceGraphic"
         id="feGaussianBlur985" />
      <feComposite
         in="result8"
         result="result19"
         in2="result8"
         operator="xor"
         id="feComposite987" />
      <feComposite
         k2="1"
         operator="arithmetic"
         result="result17"
         in2="result8"
         id="feComposite989" />
      <feComposite
         in2="result17"
         in="SourceGraphic"
         operator="atop"
         result="result6"
         id="feComposite991" />
      <feOffset
         result="result18"
         id="feOffset993" />
      <feDisplacementMap
         in2="result6"
         result="result4"
         scale="100"
         yChannelSelector="A"
         xChannelSelector="A"
         in="result18"
         id="feDisplacementMap995" />
      <feComposite
         in2="result4"
         k1="1"
         in="result4"
         operator="arithmetic"
         result="result2"
         k3="1"
         id="feComposite997" />
      <feComposite
         in2="result2"
         operator="over"
         in="result2"
         result="fbSourceGraphic"
         id="feComposite999" />
      <feComposite
         in2="result19"
         operator="over"
         result="result15"
         id="feComposite1001" />
      <feComposite
         result="result16"
         in2="SourceGraphic"
         operator="in"
         in="result15"
         id="feComposite1003" />
    </filter>
  </defs>
  <sodipodi:namedview
     id="base"
     pagecolor="#ffffff"
     bordercolor="#666666"
     borderopacity="1.0"
     inkscape:pageopacity="0.0"
     inkscape:pageshadow="2"
     inkscape:zoom="0.7"
     inkscape:cx="123.10837"
     inkscape:cy="595.94333"
     inkscape:document-units="mm"
     inkscape:current-layer="layer1"
     showgrid="false"
     inkscape:object-paths="false"
     showguides="false"
     inkscape:window-width="1366"
     inkscape:window-height="705"
     inkscape:window-x="-8"
     inkscape:window-y="-8"
     inkscape:window-maximized="1" />
  <metadata
     id="metadata5">
    <rdf:RDF>
      <cc:Work
         rdf:about="">
        <dc:format>image/svg+xml</dc:format>
        <dc:type
           rdf:resource="http://purl.org/dc/dcmitype/StillImage" />
        <dc:title></dc:title>
      </cc:Work>
    </rdf:RDF>
  </metadata>
  <g
     inkscape:label="Capa 1"
     inkscape:groupmode="layer"
     id="layer1">
    <ellipse
       id="path449"
       cx="97.895828"
       cy="188.52083"
       rx="41.955357"
       ry="42.711311"
       style="stroke-width:0.26458332;filter:url(#filter475)"
       transform="matrix(1.5599935,0,0,1.5226361,-47.828479,-93.047157)"
       inkscape:export-xdpi="96"
       inkscape:export-ydpi="96" />
    <path
       style="fill:#008080;stroke-width:0.26458332;filter:url(#filter1005)"
       id="path951"
       d="m 62.31977,220.97171 c -0.135507,-0.0488 -0.327298,-0.0261 -0.406519,-0.14634 -0.465463,-0.70666 0.324048,-1.39022 0.36386,-2.03742 0.02543,-0.41341 -0.318738,-0.78296 -0.333886,-1.19687 -0.143481,-3.92135 0.792462,0.47869 -0.178223,-3.24516 0.04574,-0.66657 0.09148,-1.33314 0.137226,-1.99972 -0.08621,-0.62121 -0.274873,-1.23668 -0.258638,-1.86364 0.01897,-0.73233 0.348771,-1.43509 0.363032,-2.16752 0.01177,-0.60447 -0.289676,-1.18648 -0.285962,-1.79105 0.03512,-5.7185 0.697439,1.26651 0.104998,-3.79326 0.641037,-1.19917 -0.629097,-2.23346 -0.500489,-3.35773 0.08759,-0.76573 0.805566,-1.38538 0.836689,-2.15548 0.01992,-0.4931 -0.694589,-0.81281 -0.69678,-1.30632 -0.03023,-6.81707 1.393039,1.76246 0.423368,-3.25192 -0.150342,-0.39153 -0.424384,-0.75603 -0.451025,-1.17458 -0.02776,-0.43611 0.580314,-2.65692 0.632127,-3.05893 0.05747,-0.44588 0.01048,-0.89909 0.02048,-1.34855 0.03941,-1.76664 0.15004,-0.85816 -0.223123,-2.45889 0.114286,-1.16912 0.550351,-2.35336 0.30354,-3.53922 -0.05994,-0.28798 -0.284969,-0.53097 -0.317719,-0.8233 -0.07363,-0.6572 0.273772,-1.41436 0.478213,-1.99908 0.406043,-0.81921 -1.016471,-0.61479 -0.974114,-1.10364 0.04081,-0.47099 0.684644,-0.70976 0.806722,-1.16649 0.05637,-0.21089 -0.376438,-0.33959 -0.346371,-0.55581 0.3111,-2.23714 0.875382,-0.0573 0.365033,-1.58804 -0.0054,-0.009 -0.579882,-0.98471 -0.574691,-1.02318 0.04245,-0.3146 0.508021,-0.52552 0.452371,-0.83806 -0.04019,-0.22569 -0.610653,-0.0135 -0.644377,-0.24029 -0.04517,-0.30372 0.356039,-0.50334 0.49289,-0.77821 0.09064,-0.18206 0.122769,-0.38779 0.184152,-0.58168 -0.617307,-1.09388 0.299504,0.77622 0.25708,-1.01162 -0.004,-0.16845 -0.347046,-0.0635 -0.474818,-0.1734 -0.0899,-0.0773 -0.09933,-0.21856 -0.117417,-0.33573 -0.08964,-0.58048 0.177548,-0.5614 0.647033,-1.06735 -0.410115,-0.17423 -0.431514,-0.0541 -0.434724,-0.50645 -0.0011,-0.14003 0.1201,-0.29968 0.04475,-0.41771 -0.08574,-0.13431 -0.452697,-0.037 -0.436227,-0.1955 0.104958,-1.01 1.197245,-0.539 -0.06651,-0.8581 1.584899,-1.60712 1.059214,-0.5856 0.208254,-1.01081 -0.115748,-0.0578 -0.185487,-0.21904 -0.172456,-0.34777 0.0205,-0.20252 0.201539,-0.35701 0.263422,-0.55092 0.129085,-0.40451 0.05867,-0.41152 -0.09747,-0.74266 1.488194,-1.77143 0.277966,0.0365 -0.04693,-0.71633 -0.08335,-0.19314 0.288266,-0.32353 0.351419,-0.52419 0.04346,-0.13808 -0.21577,-0.40445 -0.232817,-0.52047 -0.0158,-0.1075 0.03371,-0.21467 0.05056,-0.32201 0.0974,-0.14387 0.209523,-0.27881 0.292198,-0.43162 0.485021,-0.89645 -0.292023,0.31606 -0.523021,-0.26442 -0.08439,-0.21206 0.413758,-0.27318 0.475142,-0.493 -0.394957,-0.1038 -0.344813,0.0214 -0.244287,-0.32246 1.733187,-1.81295 0.889526,-0.99585 5.950635,-3.36592 0.11295,-0.0529 0.241779,0.17293 0.227761,0.29686 -0.02601,0.22997 -0.273095,0.38643 -0.330414,0.61065 -0.136046,0.53221 0.1373,0.63462 0.459888,0.97785 0.08834,2.51047 -0.177877,-0.93187 0.490746,1.40535 0.08977,0.3138 -0.0927,0.66548 -0.0024,0.97916 0.172977,0.6016 0.896713,0.94714 1.05691,1.55226 0.09579,0.36183 -0.03167,0.74791 -0.04751,1.12186 1.903219,1.26249 0.109974,-0.20106 1.14713,1.49374 0.16206,0.26481 0.644305,0.3273 0.680821,0.63561 0.05267,0.44467 -0.450858,0.81587 -0.455872,1.26362 -0.0061,0.54918 0.880816,1.09849 1.191159,1.34337 0.297021,2.57501 -0.268745,-0.46617 0.847445,1.71933 0.166521,0.32605 -0.02053,0.7798 0.185285,1.08259 0.233233,0.34313 1.685017,0.82518 1.751457,1.41844 0.05732,0.51181 -0.341244,0.97186 -0.511866,1.4578 0.145071,0.69851 0.965772,0.83768 1.278051,1.38187 0.14286,0.24895 0.02913,0.58941 0.156142,0.84681 0.113609,0.23023 0.382659,0.34739 0.535088,0.55398 0.733896,0.99464 -0.198581,0.28963 0.924816,0.96688 -1.420603,2.40195 -0.424336,0.0253 0.149474,1.13076 0.111768,0.21532 -0.295407,0.43905 -0.261369,0.67924 0.02289,0.16145 0.283015,0.1688 0.397936,0.28447 0.12868,0.12952 0.350957,0.55794 0.439296,0.71828 -0.09815,0.36994 0.330851,0.45955 0.416113,0.72475 0.05122,0.15932 -0.06867,0.34325 -0.01521,0.50183 0.04568,0.13552 0.198438,0.20627 0.290727,0.31552 0.296863,0.3514 0.224899,0.27026 0.399608,0.6958 0.0011,1.89929 -0.150865,-1.25891 0.616458,0.5363 0.09022,0.21106 -0.30776,0.3802 -0.320706,0.60937 -0.01537,0.27206 0.690999,0.35889 0.749583,0.3977 0.106513,0.0706 0.141745,0.21262 0.212616,0.31893 -0.499552,1.46481 -0.124746,-0.13198 0.04545,0.89011 0.02938,0.17647 -0.211839,0.39413 -0.09368,0.52845 0.145362,0.16524 0.446428,0.0265 0.651689,0.10587 0.467728,0.1809 0.347753,0.34917 0.355847,0.76327 0.172611,0.0604 0.408675,0.0345 0.517834,0.18126 0.695833,0.93533 -0.714968,0.0738 0.177416,0.82701 0.120029,0.10131 0.277564,0.15844 0.431623,0.18904 0.224047,0.0445 0.612635,-0.1842 0.684488,0.0326 0.08571,0.25865 -0.297908,0.45631 -0.44686,0.68447 -0.09421,0.42383 0.152728,0.73956 0.22865,1.13681 0.02556,0.13377 -0.04955,0.30801 0.04494,0.40609 0.118983,0.12352 0.328588,0.0985 0.491818,0.15111 0.17132,0.0552 0.341153,0.11498 0.51173,0.17247 7.94e-4,0.16032 0.0016,0.32063 0.0024,0.48095 0.145876,0.0819 0.41428,0.08 0.437629,0.24571 0.03416,0.24237 -0.304691,0.42133 -0.30912,0.66605 -0.0026,0.14453 0.215767,0.19802 0.291253,0.3213 0.230092,0.37578 0.127706,0.45108 0.04517,0.87393 2.09405,-0.17511 -0.01868,-0.19453 0.136059,0.71669 0.04753,0.2799 0.629356,-0.28194 0.846024,-0.0985 0.160001,0.13548 -0.279453,0.33202 -0.329883,0.53552 -0.02408,0.0972 0.08976,0.17905 0.130096,0.27066 0.03839,0.0872 0.07063,0.17696 0.105942,0.26543 0.97296,0.26668 -0.07333,-0.15744 0.219434,0.53456 0.05249,0.12407 0.339366,-0.0216 0.390806,0.10293 0.05836,0.14125 -0.1455,0.2743 -0.172826,0.42466 -0.01733,0.0953 0.03721,0.19073 0.04342,0.28742 0.0067,0.10418 -0.0032,0.20876 -0.0048,0.31315 0.133625,0.0166 0.270708,0.0153 0.400875,0.0498 0.09442,0.025 0.173445,0.0907 0.264391,0.1263 0.05083,0.0199 0.482496,0.098 0.478372,0.26997 -0.01595,0.66495 -0.365168,0.0852 -0.0605,0.49952 -0.06557,0.0375 -0.389607,0.71289 -0.05976,0.72942 0.210013,0.0105 0.635402,-0.32652 0.619919,-0.11681 -0.09417,1.27556 -0.936681,0.19571 -0.555114,0.64984 0.07882,-0.2954 0.378018,-0.0223 0.527695,-0.12346 0.01987,-0.0134 -0.0068,-0.054 0.0098,-0.0713 0.17481,-0.18206 0.460111,-0.28181 0.554122,-0.51605 0.07176,-0.17879 -0.310226,0.23008 -0.47762,0.32544 -1.857566,1.05826 -3.730331,2.08962 -5.595496,3.13443 0.127651,-0.0665 0.268515,-0.11214 0.38295,-0.19942 0.07134,-0.0544 0.102177,-0.14795 0.16115,-0.21555 0.134885,-0.15463 0.276709,-0.30315 0.419695,-0.45032 0.219173,-0.22558 0.499467,-0.40135 0.666623,-0.66777 0.08596,-0.137 0.02167,-0.3238 0.05483,-0.48211 0.04175,-0.1994 0.112736,-0.39154 0.169103,-0.58732 0.222504,-0.28194 0.445008,-0.56388 0.667509,-0.84583 -0.04556,-0.1666 -0.213212,-0.34498 -0.136668,-0.49981 0.197427,-0.39935 0.636392,-0.6327 0.880708,-1.00521 0.1504,-0.22931 0.175787,-0.5202 0.284806,-0.77183 0.543306,-1.25407 0.483631,-0.49016 0.378711,-1.65349 0.07803,-0.31098 0.07831,-0.6527 0.234082,-0.93294 0.271584,-0.48855 0.746297,-0.84301 1.023096,-1.32864 0.173903,-0.30509 0.181258,-0.68002 0.308412,-1.00737 0.14537,-0.37425 0.421685,-0.70019 0.507232,-1.09246 0.05842,-0.26787 -0.195172,-0.56399 -0.09071,-0.81747 0.206762,-0.50175 0.644824,-0.87304 0.967235,-1.30956 0.248396,-0.3651 1.342036,-1.85768 1.436709,-2.40271 0.04571,-0.26314 -0.334841,-0.50803 -0.249939,-0.76126 0.170701,-0.50913 0.639355,-0.86323 0.943076,-1.30607 0.887158,-1.29355 0.667848,-0.93764 1.208434,-2.22343 -0.829747,-1.25542 -0.352875,-0.1076 0.953532,-1.962 1.37319,-1.94919 -0.591564,0.18208 -0.1904,-1.27623 0.107342,-0.39021 0.511254,-0.62816 0.747162,-0.957 0.194017,-0.27045 0.360881,-0.55937 0.541322,-0.83906 0.02953,-1.26343 -0.065,0.15246 0.25649,-1.25107 0.04376,-0.19105 -0.04235,-0.41092 0.04523,-0.58628 0.172096,-0.34457 0.543129,-0.56603 0.704874,-0.91559 0.08283,-0.179 -0.0098,-0.39444 -0.0074,-0.59166 0.0024,-0.20205 0.01466,-0.40388 0.02199,-0.60582 2.132804,-2.48725 0.5758,-0.0599 0.616609,-1.4358 0.0069,-0.23099 0.185084,-0.42411 0.259123,-0.64302 0.06167,-0.18233 0.04217,-0.39704 0.147198,-0.55833 0.199247,-0.30599 0.619297,-0.46225 0.741439,-0.80635 0.05003,-0.14095 -0.240207,-0.17826 -0.360312,-0.26739 0.01868,-0.028 0.67945,-0.99554 0.689321,-1.09797 0.01058,-0.10976 -0.262683,-0.13412 -0.228697,-0.23901 0.07427,-0.22924 0.40196,-0.31204 0.480988,-0.53968 0.03248,-0.0935 -0.151439,-0.12764 -0.22716,-0.19146 0.167917,-0.17193 0.335835,-0.34385 0.503753,-0.51578 0.102391,-0.13766 0.282112,-0.24326 0.307173,-0.41298 0.01318,-0.0892 -0.210931,-0.0626 -0.223774,-0.15184 -0.01921,-0.13344 0.697172,-1.07894 0.812382,-1.26686 -0.233174,0.0358 -0.778594,0.32957 -0.699529,0.10731 0.124902,-0.35112 0.606565,-0.43371 0.898186,-0.66575 0.223362,-0.17772 0.53317,-0.30022 0.645573,-0.5626 0.04882,-0.11395 -0.357172,-0.0278 -0.340053,-0.15056 0.03129,-0.22447 0.306184,-0.33621 0.434004,-0.52336 0.09113,-0.13343 0.145894,-0.28834 0.218839,-0.43251 -0.151905,-0.69617 -0.04904,0.16175 0.481217,-0.87356 0.0459,-0.0897 -0.12055,-0.18536 -0.10216,-0.28438 0.0995,-0.53577 0.55363,-0.50943 0.80955,-0.97739 0.0415,-0.0759 -0.10773,-0.13524 -0.16159,-0.20286 0.2035,-0.22333 0.46701,-0.47092 0.60613,-0.75263 0.0378,-0.0766 0.0335,-0.16831 0.0639,-0.24815 0.0366,-0.0964 0.16723,-0.17958 0.13604,-0.27788 -0.0269,-0.085 -0.18052,-0.0357 -0.25231,-0.0886 -0.0507,-0.0373 -0.0614,-0.10987 -0.092,-0.16481 0.31248,-0.21352 0.66333,-0.37961 0.93745,-0.64056 0.0464,-0.0442 -0.10318,-0.11307 -0.0822,-0.17358 0.0497,-0.14361 0.52188,-0.56366 0.59085,-0.64326 0.0626,-0.0723 0.25184,-0.22229 0.15779,-0.23965 -0.21829,-0.0403 -0.43271,0.0993 -0.64906,0.14895 0.16214,-2.42465 -1.3e-4,-0.588 6.21775,-3.16833 0.14491,-0.0601 -0.0855,0.32179 -0.0328,0.46956 0.0482,0.1351 0.29907,0.15767 0.30772,0.30086 0.0155,0.25628 -0.30654,0.48071 -0.24544,0.73008 0.0575,0.23454 0.36138,0.32036 0.54207,0.48055 -0.3468,0.49653 -0.91681,0.8967 -1.04039,1.48961 -0.0703,0.33745 0.44559,0.54813 0.547,0.87757 0.12077,0.39233 0.17058,0.82281 0.10093,1.22735 -0.10073,0.5851 -0.54849,1.0853 -0.60088,1.67668 -0.0396,0.44696 0.23192,0.86702 0.33685,1.30328 0.11602,0.48235 0.21727,0.96812 0.32591,1.45218 0.10812,0.52458 0.21625,1.04917 0.32437,1.57376 -0.0322,0.61706 -0.19375,1.24098 -0.0965,1.85118 0.56392,3.53963 0.87308,-0.66782 0.82503,3.19617 -0.052,4.18448 -0.57458,-0.17299 0.0274,3.66131 1.24267,5.10204 -0.49707,-1.65853 1.0752,3.2818 0.17876,0.56168 0.22593,1.15873 0.39157,1.72442 0.1605,0.54817 0.44786,1.05613 0.58493,1.61062 0.14526,0.58759 0.16207,1.19979 0.25759,1.79749 0.0946,0.5918 0.20839,1.18036 0.31259,1.77055 0.31689,1.68118 1.16274,3.20103 1.32755,4.91846 0.0562,0.58558 -0.12054,1.18697 -0.0101,1.76477 0.83644,4.37518 0.587,-1.85109 0.61541,2.93214 0.45015,0.25833 1.06292,0.34291 1.35045,0.775 0.31744,0.47707 -0.0901,2.34051 -0.0149,2.80374 0.0992,0.61125 0.863,1.41474 1.01385,2.00504 0.0988,0.38661 0.0264,0.79762 0.0395,1.19644 -0.007,0.56554 -0.0843,1.73157 0.1483,2.29958 0.78944,1.92771 0.515,-0.30519 0.99703,1.73162 0.19754,0.83468 0.0394,1.3216 -0.0842,2.15593 0.44791,0.72626 1.15195,1.38266 1.30123,2.26475 0.0552,0.32618 -0.11647,0.67994 -0.008,0.99241 0.62414,1.79548 0.9621,-0.75126 0.27324,1.82055 0.51962,0.40534 0.32166,1.10252 0.60137,1.59828 0.48122,0.85291 0.83069,0.29695 0.86618,1.40581 0.0809,2.52618 -0.54791,-0.26062 0.0106,1.80994 0.16945,0.20246 0.37937,0.37702 0.50834,0.60739 0.12784,0.22832 0.42396,1.32431 0.46183,1.57222 0.0452,0.29608 -0.14166,0.6747 0.0595,0.89659 0.25064,0.27642 0.94646,-0.01 1.06527,0.34392 0.14111,0.42014 -0.36131,0.80944 -0.54197,1.21416 0.16915,0.20802 0.32204,0.43039 0.50744,0.62405 0.49629,0.5184 0.82548,0.45633 0.78914,1.28372 -0.0204,0.46495 -0.51867,1.19808 -0.19046,1.72021 0.13764,0.21896 0.44073,0.27074 0.6611,0.40611 1.05679,1.16568 -0.0616,-0.3593 0.0991,1.36584 0.0193,0.20689 0.3262,0.26109 0.46262,0.41782 0.0248,0.0284 0.59041,0.86955 0.57386,0.94751 -0.0722,0.3402 -0.364,0.59269 -0.546,0.88904 1.31299,-0.0376 1.2586,-0.39127 0.91316,0.67006 -0.0773,0.23737 -0.29578,0.45977 -0.25138,0.70541 0.031,0.17171 0.2744,0.22089 0.43225,0.29526 0.78656,0.3706 0.74453,-0.12898 0.2644,0.87918 0.0518,0.13262 0.14807,0.25567 0.1555,0.39787 0.009,0.17496 -0.19983,0.36531 -0.10783,0.5144 0.0946,0.15335 0.33892,0.14177 0.51884,0.15173 0.3081,0.0171 0.86505,-0.37499 0.92291,-0.0719 0.0715,0.37446 -0.56781,0.52069 -0.77632,0.83983 -0.0807,0.12345 -0.0392,0.29231 -0.0588,0.43846 0.66262,0.0578 -0.0888,0.54913 0.0887,0.70692 0.16775,0.14913 0.49401,-0.14747 0.67326,-0.0124 0.11564,0.0871 -0.11248,0.26811 -0.14749,0.40862 -0.0798,0.32026 -0.05,0.27516 0.0927,0.524 0.0448,0.0635 0.13185,0.11288 0.13449,0.1906 0.004,0.11607 -0.14038,0.21451 -0.11683,0.32823 0.0164,0.0792 0.18111,0.0459 0.20993,0.12143 0.0331,0.0868 -0.0932,0.18571 -0.0597,0.27238 0.28174,0.17576 0.18891,0.0554 0.29422,0.34852 -0.81486,1.15714 -0.10831,-0.0883 0.0807,0.4228 0.0474,0.12826 -0.28199,0.20957 -0.23339,0.33739 0.0438,0.11503 0.41038,-0.0973 0.36876,0.0186 -0.18905,0.52602 -1.42073,0.76477 0.22817,0.27803 -1.0472,1.0757 -0.32118,0.13425 0.0496,0.40651 0.0972,0.0714 -0.1779,0.19442 -0.17808,0.31505 -1.2e-4,0.088 0.31986,0.1124 0.28933,0.25216 -0.0276,0.12645 -0.14165,0.21667 -0.21248,0.325 0.081,0.74744 -0.16379,-0.89404 0.75509,0.0159 0.1536,0.15211 -0.42509,0.22286 -0.48497,0.43058 -0.0336,0.11665 0.2736,-0.0921 0.36404,-0.0111 0.0674,0.0603 -0.0606,0.17044 -0.0909,0.25566 0.0675,0.0327 0.13493,0.0653 0.2024,0.098 0,0 -6.13558,3.40454 -6.13558,3.40454 v 0 c 1.56896,-1.21638 0.84611,-0.50485 -0.0534,-0.36054 -0.0626,0.0101 -0.12415,-0.0901 -0.11358,-0.15261 0.0224,-0.13261 0.19584,-0.21669 0.19872,-0.35115 0.002,-0.07 -0.12616,-0.061 -0.18924,-0.0915 0.005,-0.0683 0.009,-0.13665 0.0137,-0.20497 -0.0766,-0.0256 -0.1897,-0.007 -0.22983,-0.0768 -0.0405,-0.0707 0.12825,-0.2212 0.0489,-0.23928 -0.18644,-0.0425 -0.57853,0.31315 -0.56035,0.1228 0.0366,-0.38351 0.91115,-0.45813 0.80567,-0.82867 -0.028,-0.0982 -0.20313,-0.0209 -0.30469,-0.0313 -0.0104,-0.052 -0.0616,-0.35812 -0.11079,-0.39348 -0.0823,-0.0592 -0.34162,0.0249 -0.29699,-0.0662 0.12485,-0.25476 0.74932,-0.3356 0.61683,-0.58647 -0.29849,-0.5652 -1.48906,0.97275 -0.44009,-0.23352 0.0239,-0.0917 0.14891,-0.22 0.0717,-0.27493 -0.12823,-0.0913 -0.66493,0.21166 -0.45298,-0.23872 0.0802,-0.17031 0.46418,-0.31733 0.33521,-0.45443 -0.52755,-0.5608 -0.92878,0.70556 -0.51796,-0.2807 0.72855,-1.39864 -0.4253,1.07106 -0.70818,-0.22282 -0.0772,-0.35325 0.62035,-0.42249 0.793,-0.7402 0.0547,-0.10067 -0.24185,-0.0764 -0.29368,-0.17859 -0.31745,-0.62589 0.56185,-0.18998 -0.41456,-0.50327 0.0448,-0.10391 0.42241,-0.66606 0.10069,-0.84546 -0.18387,-0.10253 -0.46809,0.0613 -0.62687,-0.0769 -0.3688,-0.32109 0.39802,-0.64851 0.45102,-1.12894 0.016,-0.14484 -0.2139,-0.19795 -0.32086,-0.29692 -0.0158,-0.72402 0.15009,-0.45808 -0.67961,-0.64986 -0.0914,-0.25522 0.28687,-0.47036 0.35053,-0.73388 0.0533,-0.22081 -0.0924,-0.8371 -0.21354,-1.02635 -0.0959,-0.14991 -0.25501,-0.24836 -0.38251,-0.37254 0.0215,-0.21407 0.14511,-0.44274 0.0645,-0.6422 -0.0737,-0.18242 -0.32081,-0.22901 -0.469,-0.35845 -0.14734,-0.12869 -0.29508,-0.26026 -0.41566,-0.41429 -0.12136,-0.15503 -0.23655,-0.32127 -0.30476,-0.50596 -0.32208,-0.87212 0.0354,-0.86362 0.61043,-1.75659 -0.26793,-0.10967 -0.57745,-0.1485 -0.80379,-0.32901 -0.3655,-0.29149 -0.44955,-0.94004 -0.49788,-1.34448 -0.0325,-0.27187 0.0692,-0.57241 -0.0476,-0.82003 -0.22398,-0.47467 -1.01199,-0.55079 -0.99116,-1.22347 0.004,-0.22174 0.0682,-1.5572 -0.077,-1.78972 -0.16263,-0.26034 -0.67258,-0.21688 -0.76758,-0.50877 -0.1128,-0.34657 0.35537,-0.71234 0.25601,-1.06299 -0.91253,-3.22031 -0.74937,2.3089 -0.69552,-1.43546 -0.12754,-0.70471 -0.32897,-1.75969 -0.69525,-2.38131 -0.14229,-0.24148 -0.50458,-0.37189 -0.53246,-0.65078 -0.0399,-0.3985 0.50856,-0.77971 0.35256,-1.14856 -0.14236,-0.33661 -0.67624,-0.27748 -1.01436,-0.41622 -0.20836,-1.34819 -0.24785,-0.62315 0.32088,-2.1546 -0.0187,-0.29665 -0.38562,-0.45246 -0.5823,-0.67531 -0.2484,-0.28145 -1.00173,-0.99429 -1.01963,-1.4458 -0.0163,-0.41059 0.22354,-0.79083 0.33531,-1.18625 -0.61247,-0.68165 -0.78741,-0.66189 -0.87283,-1.63877 -0.095,-1.08694 0.27976,-1.16355 -0.0647,-2.22695 -0.10629,-0.32814 -0.38752,-0.57726 -0.5137,-0.89827 -0.13351,-0.33966 -0.17179,-0.7094 -0.25768,-1.06411 -0.0238,-0.39477 -0.0675,-0.78885 -0.0714,-1.18432 -0.004,-0.42678 0.15863,-0.86764 0.0469,-1.27954 -1.04535,-3.85285 -0.31856,2.11377 -1.13628,-2.04062 -0.0913,-0.46367 0.0888,-0.95526 -0.009,-1.41767 -0.0913,-0.433 -0.36352,-0.80693 -0.54529,-1.2104 -0.45616,-1.96731 -0.34715,-0.92672 -0.25263,-3.12868 -0.10099,-0.50606 -0.52323,-0.89697 -0.69344,-1.38414 -0.1849,-0.52921 -0.24643,-1.09378 -0.36382,-1.64193 -0.54685,-2.55338 -0.12171,-0.84564 -0.80243,-3.36916 -0.2567,-0.50789 -0.65954,-0.96544 -0.77009,-1.52367 -0.2481,-1.25281 0.473,-2.56613 -0.13393,-3.80585 -0.26311,-0.53744 -1.1451,-0.66556 -1.29289,-1.24541 -1.46827,-5.76062 2.36548,0.76844 -0.52056,-3.60276 -0.095,-0.57409 -0.15465,-1.15518 -0.28506,-1.72228 -0.25447,-1.10651 -0.77194,-2.08284 -0.76971,-3.25094 0.001,-0.67129 0.30909,-1.31984 0.30203,-1.9911 -0.01,-0.90405 -0.5677,-2.28099 -0.86216,-3.11795 1.54436,-4.68789 0.49787,0.10066 0.0168,-3.13387 -0.0744,-0.5003 0.21128,-0.99365 0.23692,-1.49881 0.0105,-0.20588 -0.1665,-2.04226 -0.24295,-2.30458 -0.0785,-0.26935 -0.25849,-0.49802 -0.38774,-0.74703 0.0309,-0.26411 0.0495,-0.52994 0.0926,-0.79233 0.0359,-0.21849 0.12514,-0.42782 0.1443,-0.64842 0.0105,-0.12108 -0.0478,-0.23897 -0.0567,-0.36019 -0.002,-0.0343 -0.007,-0.0843 0.023,-0.10066 5.50467,-2.98068 7.35296,-1.81864 5.5476,-2.94417 0.004,0.56771 -0.22939,0.13801 -0.74694,0.7992 -0.0537,0.0686 0.23546,-0.005 0.2485,0.0808 0.0791,0.52257 -0.52206,0.0945 0.0178,0.39604 -0.0692,0.10207 -0.12284,0.21667 -0.20764,0.30621 -0.0118,0.0124 -0.73022,0.58419 -0.74819,0.76763 -0.008,0.0825 0.24756,0.0735 0.20313,0.1435 -0.48557,0.76496 -0.88705,0.28004 -0.4444,0.69133 0.17878,0.34826 0.13024,0.11671 -0.0657,0.58867 -0.0499,0.12026 -0.0474,0.26983 -0.1343,0.36685 -0.23789,0.26574 -0.64528,0.37969 -0.81489,0.69346 -0.0614,0.11351 0.22775,0.12136 0.34163,0.18205 -0.21224,0.20495 -0.42448,0.4099 -0.63671,0.61485 0.18307,0.0273 0.65419,-0.0707 0.5492,0.0817 -0.28343,0.41152 -0.88238,0.50634 -1.21256,0.8814 -0.0733,0.0832 0.27315,0.063 0.28402,0.17335 0.0142,0.14367 -0.21595,0.22284 -0.23088,0.36643 -0.008,0.0722 0.11999,0.0819 0.17998,0.12289 -0.0548,0.099 -0.10962,0.19801 -0.16444,0.29702 -0.30936,0.21689 -0.74186,0.32193 -0.92809,0.65066 -0.0954,0.16834 0.38623,-0.0234 0.57934,-0.0351 -0.0788,0.11326 -0.15752,0.22652 -0.23628,0.33978 -0.18643,0.20031 -0.67118,0.5187 -0.77498,0.8421 -0.0243,0.0756 0.0429,0.153 0.0643,0.2295 0.0994,0.0463 0.31277,0.0302 0.29812,0.13881 -0.0264,0.19605 -0.27151,0.29072 -0.37845,0.45714 -0.0725,0.11289 -0.0721,0.2657 -0.1542,0.37185 -0.18213,0.23551 -0.53721,0.35289 -0.62601,0.63705 -0.0413,0.13217 0.24326,0.13239 0.36488,0.19858 -0.10257,0.18251 -0.20514,0.36502 -0.30771,0.54753 -0.10251,0.42633 -0.13398,0.72212 -0.42733,1.0956 -0.25499,0.32464 -0.71406,0.50189 -0.86525,0.886 -0.0624,0.15844 0.41265,0.16925 0.38383,0.33706 -0.43952,2.55885 -0.77359,-0.35717 -0.49813,1.37577 -0.40071,1.05167 -0.13898,0.51263 -0.82809,1.59558 -0.091,0.2027 -0.0877,0.43561 -0.1316,0.65342 0.0257,0.17716 0.14499,0.36583 0.0771,0.53147 -0.548123,1.33752 -0.940042,0.39546 -0.37036,1.31273 -0.166595,0.27487 -0.332338,0.55026 -0.499776,0.82462 -0.173572,0.28441 -0.384093,0.54894 -0.523254,0.85168 -0.0913,0.19862 -0.364246,1.42015 -0.463245,1.58316 -0.268589,0.44225 -0.727888,0.75096 -0.983904,1.2006 -0.148635,0.26104 -0.133342,0.5858 -0.200014,0.8787 -0.237855,0.38299 -0.546455,0.73025 -0.713571,1.14898 -1.309259,3.28051 1.4077,-1.83101 -0.469987,1.94682 -0.215196,0.43296 -0.528897,0.81034 -0.766326,1.23153 -0.415105,0.73636 -0.719836,1.53139 -1.139441,2.26551 0.0097,1.9869 0.155217,-0.48567 -0.801537,2.0829 -0.09725,0.2611 0.149709,0.58004 0.03738,0.83501 -0.220189,0.49978 -0.76336,0.8108 -0.982802,1.3109 -0.112176,0.25565 0.02701,0.55771 0.04052,0.83656 -0.252647,0.39159 -0.505295,0.78319 -0.757946,1.17478 -0.832313,3.16445 0.787265,-2.4687 -1.263737,2.05894 -0.08019,0.177 0.327964,0.33926 0.260535,0.5215 -0.148349,0.40094 -0.545828,0.65812 -0.818743,0.98717 0.0034,0.18717 0.06326,0.38195 0.01032,0.56151 -0.07829,0.2655 -0.261207,0.48812 -0.391808,0.73218 -0.171622,1.00487 0.04202,0.43355 -1.066491,1.48696 -0.06619,0.20221 0.678622,-0.0687 0.623449,0.13681 -0.0951,0.3542 -0.565537,0.4671 -0.848305,0.70065 0.121523,0.0367 0.380958,-0.0158 0.36457,0.11004 -0.024,0.18427 -0.283837,0.23991 -0.425755,0.35986 -1.878933,1.07063 -3.757866,2.14126 -5.636797,3.21189 -0.01003,-0.0387 0.0074,-0.13026 -0.03007,-0.11619 -0.382114,0.14353 -0.695383,0.47886 -1.098918,0.54026 -0.134916,0.0205 0.06167,-0.26808 0.12023,-0.39135 0.248568,-0.52318 0.495752,-0.4117 -0.174202,-0.39105 0.01286,-0.0876 0.05526,-0.17592 0.03859,-0.26291 -0.02408,-0.12568 -0.214479,-0.18278 -0.226158,-0.31021 -0.0075,-0.0821 0.101304,-0.16115 0.0697,-0.2373 -0.04556,-0.10976 -0.510329,-0.11522 -0.530712,-0.11698 0.21981,-0.36755 0.311631,-0.27027 0.05476,-0.50997 -0.05482,-0.0512 -0.166639,-0.0664 -0.175352,-0.14088 -0.05833,-0.4986 0.984565,-0.86896 -0.107516,-0.77027 -0.03429,-0.0811 -0.08196,-0.15786 -0.102862,-0.24344 -0.02416,-0.0989 0.02514,-0.21879 -0.03083,-0.30382 -0.05882,-0.0894 -0.209402,-0.0797 -0.276479,-0.16307 -0.06343,-0.0788 -0.07413,-0.19021 -0.08841,-0.29037 -0.01595,-0.11197 0.07991,-0.26065 -0.0013,-0.33931 -0.111416,-0.10784 -0.302652,-0.0676 -0.453977,-0.10142 0.09139,-0.16395 0.315555,-0.30877 0.274174,-0.49185 -0.03127,-0.13837 -0.301704,-0.0209 -0.410615,-0.1118 -0.07995,-0.0667 -0.133553,-0.58119 -0.154964,-0.65332 -0.183067,-0.61678 -0.166774,-0.009 -0.102033,-0.75671 -1.311667,-0.48509 0.187288,0.22494 -0.506381,-0.59617 -0.113835,-0.13474 -0.482489,-0.0299 -0.487347,-0.20622 -0.0081,-0.29418 0.45166,-0.45887 0.460918,-0.75303 0.0098,-0.31304 -0.808752,-0.15541 -0.784598,-0.51696 0.04478,-0.17152 0.180728,-0.34348 0.134336,-0.51457 -0.03531,-0.13023 -0.236151,-0.13525 -0.335338,-0.22674 -0.255743,-0.23588 -0.221535,-0.31398 -0.303858,-0.63702 -0.02973,-0.11668 -0.09432,-0.22919 -0.09105,-0.34954 0.0045,-0.16604 0.07582,-0.32343 0.113732,-0.48515 -0.112731,-0.0743 -0.205177,-0.19976 -0.338196,-0.22301 -0.25645,-0.0448 -0.727715,0.28239 -0.780529,0.0275 -0.06898,-0.33296 0.791615,-0.51906 0.618104,-0.81149 -1.496801,-2.52261 -1.032423,2.77042 -0.536226,-0.59846 0.02093,-0.14216 -0.217527,-0.18779 -0.326292,-0.28169 -1.068501,-0.42473 -0.05277,0.16559 -0.231262,-0.83759 -0.01077,-0.0605 -0.815694,-0.47463 -0.844357,-0.50152 -0.09916,-0.093 -0.160364,-0.22495 -0.201948,-0.3544 -0.04476,-0.13933 -0.03463,-0.29063 -0.05194,-0.43595 -0.243218,-0.007 -0.639559,0.20401 -0.729652,-0.022 -0.101508,-0.25466 0.407082,-0.42003 0.445241,-0.69151 0.01847,-0.13146 -0.25023,-0.1289 -0.313524,-0.24559 -0.06492,-0.1197 0.03272,-0.29152 -0.04019,-0.40653 -0.0765,-0.12067 -0.241673,-0.15248 -0.362508,-0.22871 -0.04832,-0.1199 -0.09664,-0.2398 -0.144962,-0.3597 -0.105262,-0.59662 0.06119,-0.37494 -0.596665,-0.57931 -0.0838,-0.18446 0.323879,-0.4296 0.186473,-0.57848 -0.174045,-0.18858 -0.512082,-0.0345 -0.768122,-0.0517 -0.0093,-0.15711 0.04937,-0.33424 -0.02795,-0.47132 -0.07721,-0.13687 -0.259035,-0.17801 -0.388551,-0.26702 0.140454,-0.40427 0.360558,-0.65884 0.09934,-1.05959 -0.0874,-0.1341 -0.382331,-0.15014 -0.367181,-0.30949 0.02955,-0.31075 0.65236,-0.5522 0.47343,-0.80798 -0.893273,-1.27693 -1.492851,1.3568 -0.773811,-0.79688 -0.259919,-0.0906 -0.646637,-0.0308 -0.779754,-0.27172 -0.139983,-0.25334 0.159105,-0.56442 0.157819,-0.85385 -0.0011,-0.2563 -0.05283,-0.52053 -0.164962,-0.75099 -0.118968,-0.24453 -0.499769,-0.36487 -0.510146,-0.6366 -0.07658,-2.0052 1.313603,-0.67063 -0.448972,-1.83956 -1.857526,-2.16019 0.419926,0.81097 -0.717743,-1.9396 -0.137411,-0.33223 -0.516445,-0.50172 -0.750541,-0.77458 -0.223694,-0.26073 -0.386672,-0.57117 -0.620196,-0.82314 -1.04689,-1.12958 -0.824296,-0.13133 -0.68797,-1.81571 -0.334743,-0.8019 -0.289126,-0.91035 -0.910114,-1.53745 -0.568362,-0.57396 -0.96207,-0.54431 -1.165614,-1.40724 -0.0815,-0.3455 0.04778,-0.71413 -0.0066,-1.06493 -0.04956,-0.31967 -0.201012,-0.61496 -0.301517,-0.92244 -0.141777,-0.28588 -0.292166,-0.56765 -0.425331,-0.85764 -0.133609,-0.29096 -0.192902,-0.62086 -0.374639,-0.88446 -0.180755,-0.26217 -0.611709,-0.35174 -0.690401,-0.66031 -0.09374,-0.36758 0.24797,-0.7336 0.238202,-1.11281 -0.01958,-0.76015 -0.436084,-0.82097 -0.97518,-1.14683 -0.716878,-1.84719 0.373057,1.44593 0.576963,-1.5573 0.01648,-0.24297 -0.491445,0.0616 -0.73044,0.0148 -0.05212,-0.0102 0.02053,-0.11816 0.06645,-0.14481 4.855141,-2.81736 3.642191,-2.2642 5.94265,-3.28224 -2.440514,1.77172 -0.438613,0.11892 -0.153389,0.52509 0.143224,0.20395 -0.398571,0.314 -0.534189,0.52309 -0.0555,0.0856 0.105926,0.40174 0.157187,0.45085 0.07214,0.0691 0.17269,0.10051 0.259037,0.15077 0.130384,0.8935 -0.173728,0.44607 -0.594653,1.23835 -0.195326,0.36765 0.310403,0.38922 0.438832,0.4841 0.09178,0.0678 0.13884,0.18112 0.208262,0.27168 -0.08232,0.17102 -0.158602,0.34507 -0.246952,0.51306 -0.101521,0.19302 -0.368345,0.35617 -0.322339,0.56935 0.03597,0.1667 0.446027,0.004 0.482134,0.17112 0.04764,0.2199 -0.305295,0.37182 -0.31582,0.59657 -0.05843,1.24762 1.636263,-1.44551 -0.317619,1.06665 0.796846,0.31543 0.475427,-0.005 0.198753,0.79096 -0.04941,0.14206 -0.1816,0.36159 -0.05812,0.44747 0.20065,0.13955 0.718347,-0.22214 0.732893,0.0218 0.0564,0.9458 -1.551069,0.63967 -0.09158,0.77488 -0.200176,0.22323 -0.489093,0.39132 -0.600527,0.66968 -0.04272,0.10671 0.152897,0.17168 0.229346,0.25752 -0.08356,0.17446 -0.167127,0.3489 -0.25069,0.52335 -0.116023,0.20865 -0.552702,0.44487 -0.37845,0.60806 0.736944,0.69017 1.538857,-0.96344 0.535803,0.60828 0.156104,0.63288 0.141054,0.28872 -0.03402,1.03291 0.04228,0.17282 0.39954,0.19861 0.379431,0.37539 -0.03833,0.33695 -0.400301,0.55681 -0.521496,0.87354 -0.219734,0.57425 -0.04695,0.73649 0.161192,1.23435 0.01995,0.22062 0.0392,0.4413 0.05988,0.66185 0.02119,0.22596 0.08105,0.45123 0.06571,0.67766 -0.01881,0.27749 -0.201734,0.54154 -0.167026,0.81749 0.02813,0.22359 0.306594,0.36015 0.343117,0.58253 0.129331,0.78744 -0.441275,1.40004 -0.801346,2.00746 0.139372,0.26653 0.652605,1.13451 0.572661,1.46617 -0.121126,0.5025 -0.618529,0.85984 -0.741529,1.36189 -0.281622,1.14952 1.536769,1.97769 0.460999,3.15295 0.488191,3.13911 -0.0043,-1.22263 -0.364418,2.75848 -0.03679,0.40671 0.330626,0.78239 0.294558,1.18916 -0.05093,0.57444 -0.542256,1.06513 -0.545568,1.64181 -0.0047,0.82629 1.139925,1.39059 0.927679,2.29877 -1.29e-4,0.4907 -0.01302,0.98155 -2.64e-4,1.47209 0.01312,0.5089 0.229684,1.03941 0.0776,1.52523 -0.262903,0.83981 -1.183325,1.43507 -1.278202,2.30994 -0.0559,0.5155 0.795409,0.76634 0.889296,1.27628 0.225571,1.2252 -0.885986,2.47532 -0.246557,3.72923 -0.634868,7.00899 0.06715,-2.72913 0.153818,3.65263 0.0095,0.69885 -0.148727,1.39138 -0.277847,2.07827 -0.142726,0.75931 -0.548735,1.48232 -0.536659,2.25482 0.0186,1.19065 1.279842,2.16271 0.900991,3.45691 -0.0035,0.58978 0.06665,1.18462 -0.0105,1.76935 -0.08098,0.61375 -0.500145,1.18147 -0.460343,1.79926 0.02603,0.40413 0.42845,0.68734 0.642678,1.031 0.21599,0.25655 0.607255,0.43676 0.647972,0.76964 0.04262,0.34841 -0.312237,0.63 -0.436628,0.95823 -0.047,0.12402 -0.04976,0.26056 -0.07463,0.39084 0,0 -5.378318,2.79695 -5.378318,2.79695 z"
       inkscape:connector-curvature="0" />
    <path
       style="fill:#008080;stroke-width:0.26458332"
       id="path953"
       d="m 92.271349,233.88839 c -0.102828,0.0164 -0.387699,0.11684 -0.308483,0.0493 0.272407,-0.16109 0.544811,-0.32219 0.817218,-0.48329 -0.08774,-0.0196 -0.3254,0.006 -0.263207,-0.0587 0.982347,-1.0251 0.85113,-0.052 0.840962,-1.03138 0.479115,-0.29484 1.005901,-0.5235 1.437344,-0.88453 0.08725,-0.073 -0.0483,-0.25443 0.02635,-0.34028 0.259612,-0.29852 0.618686,-0.49342 0.920798,-0.74885 0.675227,-0.5709 0.964739,-0.78955 1.469535,-1.46669 0.144198,-0.19343 0.256921,-0.40844 0.385382,-0.61267 0.834932,-0.70367 1.097042,-0.82956 1.700366,-1.62244 0.142147,-0.1868 0.196665,-0.44385 0.375787,-0.59557 0.508219,-0.43045 1.185179,-0.64843 1.652839,-1.12264 0.0918,-0.0931 -0.21125,-0.18384 -0.23816,-0.31184 -0.0303,-0.14396 0.0543,-0.28918 0.0814,-0.43377 0.52331,-0.35319 1.21087,-0.54029 1.56996,-1.05958 0.14844,-0.21468 -0.88924,0.15109 -0.77837,-0.0852 0.22524,-0.48003 0.86388,-0.61717 1.26865,-0.95971 0.27929,-0.23635 0.51336,-0.52168 0.77909,-0.77318 0.31489,-0.29804 0.72046,-0.51524 0.96236,-0.87507 0.0871,-0.12956 -0.0413,-0.30948 -0.062,-0.46422 0.50341,-0.37911 1.06267,-0.69367 1.51023,-1.13731 0.15359,-0.15225 0.12676,-0.41935 0.2437,-0.60126 0.17473,-0.2718 0.39474,-0.51365 0.6212,-0.74413 0.11538,-0.11744 1.6751,-1.4866 1.81816,-1.67455 0.0969,-0.12723 0.0762,-0.31059 0.11424,-0.46589 0.58443,-0.73303 0.45486,-0.6286 1.2351,-1.32115 0.2912,-0.25848 0.63188,-0.46342 0.89576,-0.74973 0.11549,-0.12531 0.11789,-0.32515 0.2204,-0.46128 0.72363,-0.75002 0.41399,-0.37541 0.9499,-1.10615 0.38717,-0.5093 0.93357,-0.85463 1.37252,-1.30992 0.16167,-0.16769 0.285,-0.3685 0.4275,-0.55274 0.22778,-0.22032 0.45466,-0.44155 0.68333,-0.66093 0.80674,-0.77397 0.54674,-0.36009 0.89145,-1.09117 0.2534,-0.22036 0.52988,-0.41669 0.7602,-0.66107 0.11976,-0.12709 0.1762,-0.30236 0.28005,-0.44274 0.0394,-0.0533 0.73466,-0.87387 0.79136,-0.92874 0.34205,-0.33099 1.03206,-0.85398 1.39443,-1.13762 0.0159,-0.57835 -0.0648,-0.0758 0.60348,-0.78025 0.0952,-0.10033 0.11773,-0.25908 0.22089,-0.35116 0.26526,-0.23676 0.63836,-0.3487 0.86765,-0.62044 0.0567,-0.0672 -0.1243,-0.12455 -0.18646,-0.18682 0.35664,-0.23582 0.71329,-0.47165 1.06993,-0.70747 -0.14149,-1.00362 0.0423,-0.39501 1.3433,-1.354 0.11539,-0.0851 0.13174,-0.26021 0.23355,-0.36114 0.80085,-0.7939 0.56597,-0.18827 0.74723,-0.81035 0.42069,-0.5512 1.0043,-0.91999 1.5367,-1.34674 0.16754,-0.13429 0.35704,-0.25142 0.48515,-0.42373 0.04,-0.0538 -0.0143,-0.13323 -0.0215,-0.19984 0.19067,-0.14312 0.38134,-0.28625 0.57201,-0.42937 0.16749,-0.12876 0.33498,-0.25752 0.50247,-0.38628 0.1114,-0.10362 0.21408,-0.21751 0.33421,-0.31087 0.19268,-0.14974 0.6601,-0.17964 0.60194,-0.41662 -0.0544,-0.22177 -0.67028,0.35286 -0.67362,0.12454 -0.004,-0.26299 0.45557,-0.26461 0.66934,-0.41786 0.0918,-0.0658 0.16199,-0.15746 0.24299,-0.23619 0.11525,-0.48983 0.84265,-0.47924 1.06312,-0.83656 0.077,-0.12477 -0.29085,0.0372 -0.43627,0.0558 0,0 6.24807,-2.54004 6.24807,-2.54004 v 0 c -0.29215,0.34074 -0.0787,0.12473 -0.73797,0.53439 -0.0439,0.0449 0.1199,0.0375 0.17985,0.0563 -0.33891,0.18858 -0.67782,0.37716 -1.01673,0.56574 0.1611,0.11709 0.12316,0.0355 0.0923,0.23127 -0.0217,0.13759 -0.0103,0.25406 -0.15475,0.35327 -1.05202,0.72259 -1.46111,0.39928 -0.90678,0.73866 -1.52314,1.08961 0.0543,-0.0893 -0.94986,0.77465 -0.19148,0.16474 -0.42123,0.28539 -0.59679,0.467 -0.88436,0.91489 0.4532,-0.2445 -0.20617,0.57183 -0.15303,0.18945 -0.36553,0.32189 -0.5483,0.48284 -0.2941,0.2697 -0.63838,0.56617 -0.89945,0.87384 -0.10234,0.12061 -0.15682,0.2833 -0.2788,0.38401 -0.31799,0.26253 -0.70681,0.4303 -1.0251,0.69247 -0.32215,0.26536 -0.32781,0.84 -0.87419,0.89643 -1.12797,1.26967 0.85237,-0.89409 -1.29632,1.0526 -0.0767,0.0695 -0.0282,0.22022 -0.10137,0.29345 -0.38075,0.38123 -0.97475,0.62731 -1.3262,1.05503 -0.0639,0.0778 -0.0492,0.19527 -0.0737,0.29291 -0.13043,0.14302 -0.25932,0.28745 -0.39128,0.42904 -0.14925,0.16015 -0.36101,0.27718 -0.45232,0.47614 -0.0368,0.0802 0.17491,0.1578 0.12731,0.2321 -0.20099,0.31373 -1.37942,1.07803 -1.54674,1.27324 -0.0746,0.0871 0.006,0.22928 0.009,0.34392 -0.0277,0.0242 -1.57255,1.37362 -1.58303,1.38426 -0.16286,0.16541 -0.26609,0.38317 -0.4289,0.54863 -0.35513,0.36093 -0.98705,0.72733 -1.20095,1.25551 -0.0457,0.11286 0.009,0.24334 0.0141,0.36501 -0.43453,0.30006 -0.90944,0.54875 -1.30359,0.90018 -0.11915,0.10625 -0.11398,0.30004 -0.19607,0.43696 -0.11093,0.18502 -0.22363,0.37526 -0.38001,0.52387 -0.42793,0.40664 -1.35781,0.96522 -1.73521,1.48501 -0.0905,0.12469 -0.0665,0.30093 -0.0997,0.45139 -0.22865,0.23386 -0.44214,0.48357 -0.68596,0.70156 -0.4186,0.37428 -1.59029,1.21411 -1.95735,1.72845 -0.10475,0.14677 0.0102,0.40128 -0.11816,0.52787 -1.77761,1.75264 -1.59106,0.3995 -1.64149,1.70022 -3.08352,2.91718 0.0806,-0.35761 -1.14258,1.46026 -0.50605,0.75205 -1.02664,0.89218 -1.65811,1.56759 -0.13742,0.14699 -0.17436,0.36567 -0.29525,0.52652 -0.17463,0.23237 -0.39058,0.4306 -0.58587,0.6459 -0.0685,0.069 -1.23865,1.2298 -1.28593,1.34471 -0.0506,0.12302 0.2678,0.23161 0.19938,0.34569 -0.20674,0.34471 -0.58895,0.54743 -0.89285,0.81053 -0.32996,0.28565 -1.94762,1.61079 -2.25939,1.86691 -0.14387,0.21193 -0.28764,0.42394 -0.43163,0.63579 -0.14385,0.21164 -0.33105,0.39949 -0.43191,0.63468 -0.0572,0.1334 0.074,0.33004 -0.0267,0.43464 -0.35537,0.36933 -0.84659,0.57911 -1.25133,0.89356 -0.60787,0.47228 -0.64995,0.56475 -1.086936,1.07883 -0.53975,0.3913 -0.745726,0.35533 -0.924695,0.83674 -0.02432,0.0654 -0.02917,0.13651 -0.04189,0.20513 -0.01008,0.0543 0.01318,0.12511 -0.02649,0.16352 -0.126482,0.12244 -0.341794,0.14462 -0.441608,0.28962 -0.04758,0.0691 0.167587,-0.009 0.25138,-0.0133 0,0 -6.248278,2.65474 -6.248278,2.65474 z"
       inkscape:connector-curvature="0" />
    <path
       style="fill:#008080;stroke-width:0.26458332"
       id="path955"
       d="m 91.184335,191.54228 c 0.05019,-0.0401 0.485145,-0.38251 0.516998,-0.42818 0.02119,-0.0304 -0.03709,-0.0699 -0.03155,-0.10649 0.0085,-0.0565 0.07629,-0.0989 0.07125,-0.15575 -0.0038,-0.0428 -0.123852,-0.0594 -0.09296,-0.0893 0.17334,-0.16763 0.400839,-0.26816 0.601261,-0.40223 0.536104,-0.51872 -0.853837,0.15109 -0.678119,0.009 0.458761,-0.3713 1.086246,-0.48203 1.566799,-0.82466 0.136109,-0.097 -0.456216,0.22429 -0.497594,0.0623 -0.04471,-0.17501 0.291975,-0.21338 0.42891,-0.33118 0.09502,-0.0817 0.177046,-0.17749 0.265568,-0.26624 0.03657,-0.0611 0.0934,-0.11393 0.109699,-0.18323 0.009,-0.0383 -0.05084,-0.0729 -0.04052,-0.11092 0.01717,-0.0632 0.07303,-0.10902 0.114134,-0.16005 0.279071,-0.34649 0.673451,-0.28068 0.852855,-0.67294 0.110244,-0.0663 0.79861,-0.47481 0.935119,-0.57618 0.05059,-0.0376 0.07269,-0.10815 0.127103,-0.13994 0.255712,-0.14938 0.543817,-0.24007 0.794182,-0.39825 0.03458,-0.0219 -0.07873,-0.0319 -0.119452,-0.028 -0.12728,0.0121 -0.250759,0.0501 -0.376139,0.0751 0.102042,-0.054 0.82237,-0.33702 0.981273,-0.57476 0.01183,-0.0177 -0.03542,-0.0236 -0.05313,-0.0354 0.0496,-0.0415 0.09293,-0.0918 0.148797,-0.12437 0.154315,-0.0898 0.319,-0.16049 0.478501,-0.24074 -0.384132,-0.1781 0.590945,-0.1627 0.501825,-0.3451 -0.02761,-0.0565 -0.228698,0.0509 -0.18864,0.002 0.08938,-0.10817 0.250732,-0.12902 0.362889,-0.21334 0.02069,-0.0156 0.01368,-0.0499 0.02051,-0.0749 0.06617,-0.0488 0.132336,-0.0976 0.198506,-0.1464 -0.0048,-0.0276 -0.03489,-0.0639 -0.01426,-0.0828 0.150368,-0.13811 0.587613,-0.34593 0.739259,-0.47758 0.02658,-0.0231 -0.008,-0.0821 0.01976,-0.10373 0.884251,-0.68886 0.210426,-0.003 0.609955,-0.42612 -0.732698,0.12752 -0.03608,0.0428 0.210613,-0.24034 0.07,-0.0804 -0.393316,0.11943 -0.316417,0.0456 0.183242,-0.17579 0.44265,-0.24901 0.66192,-0.3771 0.15162,-0.0886 0.35566,-0.12512 0.45064,-0.27282 0.0538,-0.0836 -0.19758,0.0219 -0.29637,0.0329 0.41588,-0.38966 -0.22536,0.0255 0.29184,-0.353 0,0 5.52547,-2.32066 5.52547,-2.32066 v 0 c 0.93736,-0.22198 0.33042,-0.0227 -0.0991,0.28349 0.0852,-0.0122 0.29057,-0.11521 0.25566,-0.0365 -0.0576,0.12968 -0.23614,0.15779 -0.34813,0.2449 -0.0536,0.0417 -0.0912,0.10235 -0.14734,0.14051 -0.17962,0.12211 -0.58158,0.12248 -0.55692,0.33827 0.0225,0.19715 0.39542,-0.20323 0.58053,-0.13174 0.12396,0.0479 -0.21695,0.15351 -0.32542,0.23027 -0.25899,0.32702 -0.0486,0.0917 -0.79876,0.50855 -0.10134,0.11737 0.31195,-0.16154 0.45431,-0.10006 0.0915,0.0395 -0.14077,0.14267 -0.22211,0.20034 -0.14109,0.10002 -0.29633,0.17849 -0.44255,0.27086 -0.11425,0.0722 -0.22584,0.14849 -0.33876,0.22274 -10e-4,0.0332 -0.0279,0.0765 -0.004,0.0995 0.0313,0.0299 0.15936,-0.0106 0.12829,0.0195 -0.25867,0.2506 -0.66363,0.29492 -0.95255,0.50995 -0.0446,0.0332 0.19883,-0.0302 0.16605,0.0146 -0.0718,0.0982 -0.20896,0.12471 -0.31343,0.18707 -0.009,0.0364 -0.0636,0.10946 -0.0261,0.1093 0.14532,-5.3e-4 0.54969,-0.17964 0.4216,-0.111 -0.44181,0.23677 -0.91352,0.41293 -1.37028,0.61939 0.11002,-0.0238 0.23601,-0.13313 0.33007,-0.0713 0.12497,0.0821 -0.42609,0.186 -0.34582,0.28581 -0.11506,0.082 -0.2127,0.18886 -0.33471,0.26014 -0.19022,0.11111 -0.4056,0.17812 -0.58813,0.30146 -0.0221,0.0149 0.0558,0.0528 0.0365,0.0713 -0.64316,0.6133 -0.15725,-0.0428 -0.43693,0.35609 -0.12313,0.0805 -0.24321,0.16581 -0.36939,0.24139 -0.20072,0.12021 -0.434414,0.19206 -0.610868,0.3457 -0.0464,0.0404 0.230028,-0.0119 0.182544,0.0272 -0.196725,0.16209 -0.48755,0.19233 -0.667787,0.37258 -0.06621,0.0662 0.602372,-0.18977 0.259213,0.10825 -0.561917,0.4077 -0.228492,0.17732 -1.012984,0.67235 -0.111824,0.0786 -0.433925,0.20554 -0.311603,0.26652 0.180113,0.0898 0.524108,-0.31783 0.590082,-0.1277 0.07723,0.22255 -0.689893,0.18574 -0.495083,0.50432 -0.145785,0.11203 -0.291573,0.22406 -0.437359,0.33609 -0.05208,0.073 -0.08745,0.16157 -0.15625,0.21916 -0.16764,0.14032 -0.440621,0.17397 -0.543729,0.36674 -0.0597,0.11162 0.250277,-0.0679 0.375992,-0.0531 0.03198,0.004 0.01302,0.0791 -0.01471,0.0955 -0.306647,0.18157 -0.637159,0.31942 -0.955739,0.47912 0,0 -5.434904,2.37796 -5.434904,2.37796 z"
       inkscape:connector-curvature="0" />
    <path
       style="fill:#008080;stroke-width:0.26458332"
       id="path961"
       d="m 139.94305,186.01765 c 2.34832,-1.16367 0.0761,-0.11444 0.31561,0.006 0.21424,0.10801 0.44928,-0.47191 0.64093,-0.32756 0.17941,0.13514 -0.36511,0.26221 -0.53909,0.40427 -0.0245,0.02 -0.0825,0.0887 -0.0525,0.0788 0.0718,-0.0236 0.12654,-0.0826 0.18981,-0.1239 0.9926,-0.70232 0.1626,-0.11324 0.146,-0.10657 -0.0237,0.01 0.0144,-0.0491 0.0216,-0.0736 -1.73948,1.21873 -3.47895,2.43745 -5.21843,3.65618 0,0 5.01143,-3.25536 5.01143,-3.25536 v 0 c -1.75956,1.30221 -3.51911,2.60442 -5.27866,3.90663 0.1479,-0.18232 0.34249,-0.33059 0.0333,-0.318 0.0236,-0.0696 0.11305,-0.14853 0.0709,-0.20872 -0.0733,-0.1046 -0.43114,0.0635 -0.6179,0.0332 -0.26719,-0.0432 -0.0131,-0.6098 0.12267,-0.59105 0,0 5.15435,-3.08066 5.15435,-3.08066 z"
       inkscape:connector-curvature="0" />
    <flowRoot
       xml:space="preserve"
       id="flowRoot1013"
       style="fill:black;fill-opacity:1;stroke:none;font-family:sans-serif;font-style:normal;font-weight:normal;font-size:40px;line-height:1.25;letter-spacing:0px;word-spacing:0px"><flowRegion
         id="flowRegion1015"><rect
           id="rect1017"
           width="102.85714"
           height="157.14285"
           x="561.42859"
           y="848.23395" /></flowRegion><flowPara
         id="flowPara1019"></flowPara></flowRoot>    <text
       xml:space="preserve"
       style="font-style:normal;font-variant:normal;font-weight:normal;font-stretch:normal;font-size:10.58333302px;line-height:1.25;font-family:'Rage Italic';-inkscape-font-specification:'Rage Italic, ';letter-spacing:0px;word-spacing:0px;fill:#000000;fill-opacity:1;stroke:none;stroke-width:0.26458332"
       x="122.46429"
       y="169.24405"
       id="text1024"><tspan
         sodipodi:role="line"
         id="tspan1022"
         x="122.46429"
         y="178.06065"
         style="stroke-width:0.26458332" /></text>
    <text
       xml:space="preserve"
       style="font-style:normal;font-variant:normal;font-weight:normal;font-stretch:normal;font-size:9.10472488px;line-height:1.25;font-family:ScriptC;-inkscape-font-specification:ScriptC;letter-spacing:0px;word-spacing:0.01593327px;writing-mode:tb-rl;fill:#000000;fill-opacity:1;stroke:none;stroke-width:0.22761813"
       x="81.595001"
       y="179.57306"
       id="text1028"
       transform="scale(0.860289,1.1624001)"><tspan
         sodipodi:role="line"
         id="tspan1026"
         x="81.595001"
         y="179.57306"
         style="font-style:normal;font-variant:normal;font-weight:normal;font-stretch:normal;font-family:'Rage Italic';-inkscape-font-specification:'Rage Italic, ';word-spacing:0.01593327px;writing-mode:lr-tb;fill:#008080;stroke-width:0.22761813"
         rotate="10.999998 10.999998 10.999998 10.999998 10.999998 10.999998 10.999998 10.999998 10.999998 10.999998 10.999998 10.999998 0"
         dy="1.8582258"
         dx="-0.47315907">Maxi Almeira</tspan></text>
  </g>
</svg>
